<?xml version="1.0" encoding="UTF-8" standalone="no"?>
<!-- Created with Inkscape (http://www.inkscape.org/) -->

<svg
   xmlns:dc="http://purl.org/dc/elements/1.1/"
   xmlns:cc="http://creativecommons.org/ns#"
   xmlns:rdf="http://www.w3.org/1999/02/22-rdf-syntax-ns#"
   xmlns:svg="http://www.w3.org/2000/svg"
   xmlns="http://www.w3.org/2000/svg"
   xmlns:xlink="http://www.w3.org/1999/xlink"
   xmlns:sodipodi="http://sodipodi.sourceforge.net/DTD/sodipodi-0.dtd"
   xmlns:inkscape="http://www.inkscape.org/namespaces/inkscape"
   width="512"
   height="64"
   id="svg3889"
   version="1.1"
   inkscape:version="0.48.2 r9819"
   sodipodi:docname="New document 4">
  <defs
     id="defs3891">
    <linearGradient
       inkscape:collect="always"
       id="linearGradient4115">
      <stop
         style="stop-color:#ffeeaa;stop-opacity:1;"
         offset="0"
         id="stop4117" />
      <stop
         style="stop-color:#ffeeaa;stop-opacity:0;"
         offset="1"
         id="stop4119" />
    </linearGradient>
    <linearGradient
       inkscape:collect="always"
       id="linearGradient4107">
      <stop
         style="stop-color:#ffeeaa;stop-opacity:1;"
         offset="0"
         id="stop4109" />
      <stop
         style="stop-color:#ffeeaa;stop-opacity:0;"
         offset="1"
         id="stop4111" />
    </linearGradient>
    <linearGradient
       inkscape:collect="always"
       id="linearGradient4099">
      <stop
         style="stop-color:#ffeeaa;stop-opacity:1;"
         offset="0"
         id="stop4101" />
      <stop
         style="stop-color:#ffeeaa;stop-opacity:0;"
         offset="1"
         id="stop4103" />
    </linearGradient>
    <linearGradient
       inkscape:collect="always"
       id="linearGradient3973">
      <stop
         style="stop-color:#71c837;stop-opacity:1;"
         offset="0"
         id="stop3975" />
      <stop
         style="stop-color:#71c837;stop-opacity:0;"
         offset="1"
         id="stop3977" />
    </linearGradient>
    <linearGradient
       inkscape:collect="always"
       id="linearGradient3922">
      <stop
         style="stop-color:#447821;stop-opacity:1;"
         offset="0"
         id="stop3924" />
      <stop
         style="stop-color:#447821;stop-opacity:0;"
         offset="1"
         id="stop3926" />
    </linearGradient>
    <linearGradient
       inkscape:collect="always"
       xlink:href="#linearGradient3922"
       id="linearGradient3928"
       x1="279.05463"
       y1="22.015535"
       x2="279.05463"
       y2="32.306465"
       gradientUnits="userSpaceOnUse"
       gradientTransform="translate(-4.9244937,997.45355)" />
    <linearGradient
       inkscape:collect="always"
       xlink:href="#linearGradient3973"
       id="linearGradient3979"
       x1="288.20914"
       y1="23.025688"
       x2="288.08289"
       y2="34.579308"
       gradientUnits="userSpaceOnUse" />
    <linearGradient
       inkscape:collect="always"
       xlink:href="#linearGradient3973"
       id="linearGradient3999"
       gradientUnits="userSpaceOnUse"
       x1="288.20914"
       y1="23.025688"
       x2="288.08289"
       y2="34.579308"
       gradientTransform="matrix(1.1750626,0,0,1.1750626,-51.076838,983.92737)" />
    <linearGradient
       inkscape:collect="always"
       xlink:href="#linearGradient3973"
       id="linearGradient4003"
       gradientUnits="userSpaceOnUse"
       gradientTransform="matrix(0.96332778,0,0,0.96332778,-0.09562981,999.68618)"
       x1="288.20914"
       y1="23.025688"
       x2="288.08289"
       y2="34.579308" />
    <linearGradient
       inkscape:collect="always"
       xlink:href="#linearGradient3973"
       id="linearGradient4007"
       gradientUnits="userSpaceOnUse"
       gradientTransform="matrix(0.94616485,0,0,1.4044434,25.488789,990.04671)"
       x1="288.20914"
       y1="23.025688"
       x2="288.08289"
       y2="34.579308" />
    <linearGradient
       inkscape:collect="always"
       xlink:href="#linearGradient4099"
       id="linearGradient4105"
       x1="351.78561"
       y1="1004.885"
       x2="351.9119"
       y2="1023.194"
       gradientUnits="userSpaceOnUse" />
    <linearGradient
       inkscape:collect="always"
       xlink:href="#linearGradient4107"
       id="linearGradient4113"
       x1="341.17902"
       y1="1016.123"
       x2="341.81036"
       y2="1031.4015"
       gradientUnits="userSpaceOnUse" />
    <linearGradient
       inkscape:collect="always"
       xlink:href="#linearGradient4115"
       id="linearGradient4121"
       x1="361.88715"
       y1="1017.8907"
       x2="362.39221"
       y2="1034.8108"
       gradientUnits="userSpaceOnUse" />
  </defs>
  <sodipodi:namedview
     id="base"
     pagecolor="#ffffff"
     bordercolor="#666666"
     borderopacity="1.0"
     inkscape:pageopacity="0.0"
     inkscape:pageshadow="2"
     inkscape:zoom="7.9195959"
     inkscape:cx="137.93529"
     inkscape:cy="35.578761"
     inkscape:document-units="px"
     inkscape:current-layer="layer1"
     showgrid="false"
     inkscape:window-width="1600"
     inkscape:window-height="838"
     inkscape:window-x="-8"
     inkscape:window-y="-8"
     inkscape:window-maximized="1" />
  <metadata
     id="metadata3894">
    <rdf:RDF>
      <cc:Work
         rdf:about="">
        <dc:format>image/svg+xml</dc:format>
        <dc:type
           rdf:resource="http://purl.org/dc/dcmitype/StillImage" />
        <dc:title></dc:title>
      </cc:Work>
    </rdf:RDF>
  </metadata>
  <g
     inkscape:label="Layer 1"
     inkscape:groupmode="layer"
     id="layer1"
     transform="translate(0,-988.36218)">
    <rect
       style="fill:#164450;fill-opacity:1;stroke:none"
       id="rect3897"
       width="64"
       height="64"
       x="0"
       y="988.36218" />
    <rect
       y="988.36218"
       x="64"
       height="64"
       width="64"
       id="rect3899"
       style="fill:#00aad4;fill-opacity:1;stroke:none" />
    <rect
       style="fill:#2d5016;fill-opacity:1;stroke:none"
       id="rect3901"
       width="64"
       height="64"
       x="128"
       y="988.36218" />
    <rect
       y="988.36218"
       x="192"
       height="64"
       width="64"
       id="rect3903"
       style="fill:#5aa02c;fill-opacity:1;stroke:none" />
    <rect
       style="fill:#ffdd55;fill-opacity:1;stroke:none"
       id="rect3905"
       width="64"
       height="64"
       x="320"
       y="988.36218" />
    <rect
       y="988.36218"
       x="384"
       height="64"
       width="64"
       id="rect3907"
       style="fill:#6c6753;fill-opacity:1;stroke:none" />
    <rect
       y="988.36218"
       x="256"
       height="64"
       width="64"
       id="rect3909"
       style="fill:#5aa02c;fill-opacity:1;stroke:none" />
    <path
       style="fill:url(#linearGradient3999);fill-opacity:1;stroke:none"
       d="m 287.52479,1006.9145 c -11.19536,0 -22.03242,10.8021 -22.03242,16.5243 0,0.1022 -0.007,0.1961 0,0.2938 l 43.22027,0 c 0.004,-0.074 0,-0.1437 0,-0.2203 0,-5.7221 -9.99247,-16.5978 -21.18785,-16.5978 z"
       id="path3930"
       inkscape:connector-curvature="0" />
    <path
       inkscape:connector-curvature="0"
       id="path4001"
       d="m 277.49328,1018.5313 c -9.17806,0 -18.06239,8.8556 -18.06239,13.5467 0,0.084 -0.006,0.1608 0,0.2409 l 35.4324,0 c 0.003,-0.061 0,-0.1178 0,-0.1806 0,-4.691 -8.19193,-13.607 -17.37001,-13.607 z"
       style="fill:url(#linearGradient4003);fill-opacity:1;stroke:none" />
    <path
       style="fill:url(#linearGradient4007);fill-opacity:1;stroke:none"
       d="m 298.1321,1017.5211 c -9.01454,0 -17.74059,12.9107 -17.74059,19.7499 0,0.1225 -0.006,0.2344 0,0.3512 l 34.80113,0 c 0.003,-0.089 0,-0.1717 0,-0.2633 0,-6.839 -8.04598,-19.8378 -17.06054,-19.8378 z"
       id="path4005"
       inkscape:connector-curvature="0" />
    <g
       id="g4079"
       transform="matrix(1.2685189,0,0,1.2685189,-114.9883,-266.79416)">
      <path
         sodipodi:nodetypes="ccccc"
         inkscape:connector-curvature="0"
         id="path4075"
         d="m 412.67699,998.74959 18.65536,5.91851 2.95913,21.357 -33.96563,-0.13 z"
         style="fill:#454837;fill-opacity:1;stroke:none" />
      <path
         style="fill:#a7ac93;fill-opacity:1;stroke:none"
         d="m 413.3328,1000.2544 17.62617,5.5916 2.79588,20.1791 -32.09179,-0.1214 z"
         id="path4077"
         inkscape:connector-curvature="0"
         sodipodi:nodetypes="ccccc" />
      <path
         style="fill:#454837;fill-opacity:1;stroke:none"
         d="m 435.11771,1014.3919 -10.90712,3.4603 -1.7301,12.4867 19.85849,-0.076 z"
         id="path4059"
         inkscape:connector-curvature="0"
         sodipodi:nodetypes="ccccc" />
      <path
         sodipodi:nodetypes="ccccc"
         inkscape:connector-curvature="0"
         id="rect4056"
         d="m 434.73428,1015.2717 -10.30539,3.2692 -1.63465,11.798 18.76292,-0.071 z"
         style="fill:#a7ac93;fill-opacity:1;stroke:none" />
      <path
         sodipodi:nodetypes="ccccc"
         inkscape:connector-curvature="0"
         id="path4069"
         d="m 402.53597,1012.347 10.90712,3.4603 1.7301,12.4867 -19.85849,-0.076 z"
         style="fill:#454837;fill-opacity:1;stroke:none" />
      <path
         style="fill:#a7ac93;fill-opacity:1;stroke:none"
         d="m 402.9194,1013.2268 10.30539,3.2692 1.63465,11.798 -18.76292,-0.071 z"
         id="path4071"
         inkscape:connector-curvature="0"
         sodipodi:nodetypes="ccccc" />
    </g>
    <path
       inkscape:connector-curvature="0"
       id="path4087"
       d="m 351.79575,1003.7578 c -11.19536,0 -22.03242,10.8021 -22.03242,16.5243 0,0.1022 -0.007,0.1961 0,0.2938 l 43.22027,0 c 0.004,-0.074 0,-0.1437 0,-0.2203 0,-5.7221 -9.99247,-16.5978 -21.18785,-16.5978 z"
       style="fill:url(#linearGradient4105);fill-opacity:1;stroke:none" />
    <path
       style="fill:url(#linearGradient4113);fill-opacity:1;stroke:none"
       d="m 341.76424,1015.3746 c -9.17806,0 -18.06239,8.8556 -18.06239,13.5467 0,0.084 -0.006,0.1608 0,0.2409 l 35.4324,0 c 0.003,-0.061 0,-0.1178 0,-0.1806 0,-4.691 -8.19193,-13.607 -17.37001,-13.607 z"
       id="path4089"
       inkscape:connector-curvature="0" />
    <path
       inkscape:connector-curvature="0"
       id="path4091"
       d="m 362.40306,1014.3644 c -9.01454,0 -17.74059,12.9107 -17.74059,19.7499 0,0.1225 -0.006,0.2344 0,0.3512 l 34.80113,0 c 0.003,-0.089 0,-0.1717 0,-0.2633 0,-6.839 -8.04598,-19.8378 -17.06054,-19.8378 z"
       style="fill:url(#linearGradient4121);fill-opacity:1;stroke:none" />
  </g>
</svg>
