<?xml version="1.0" encoding="UTF-8" standalone="no"?>
<!-- Created with Inkscape (http://www.inkscape.org/) -->

<svg
   xmlns:dc="http://purl.org/dc/elements/1.1/"
   xmlns:cc="http://creativecommons.org/ns#"
   xmlns:rdf="http://www.w3.org/1999/02/22-rdf-syntax-ns#"
   xmlns:svg="http://www.w3.org/2000/svg"
   xmlns="http://www.w3.org/2000/svg"
   xmlns:xlink="http://www.w3.org/1999/xlink"
   xmlns:sodipodi="http://sodipodi.sourceforge.net/DTD/sodipodi-0.dtd"
   xmlns:inkscape="http://www.inkscape.org/namespaces/inkscape"
   width="128"
   height="128"
   id="svg2"
   version="1.1"
   inkscape:version="0.48.2 r9819"
   sodipodi:docname="settler.svg"
   inkscape:export-filename="C:\Users\Martin\Documents\NetBeansProjects\new_civ\assets\sprites\settler.png"
   inkscape:export-xdpi="45"
   inkscape:export-ydpi="45">
  <defs
     id="defs4">
    <linearGradient
       inkscape:collect="always"
       id="linearGradient2999">
      <stop
         style="stop-color:#afe9dd;stop-opacity:1;"
         offset="0"
         id="stop3001" />
      <stop
         style="stop-color:#afe9dd;stop-opacity:0;"
         offset="1"
         id="stop3003" />
    </linearGradient>
    <linearGradient
       inkscape:collect="always"
       xlink:href="#linearGradient2999"
       id="linearGradient3005"
       x1="66.065842"
       y1="42.691078"
       x2="66.199989"
       y2="95.129944"
       gradientUnits="userSpaceOnUse" />
    <linearGradient
       inkscape:collect="always"
       xlink:href="#linearGradient2999"
       id="linearGradient3887"
       gradientUnits="userSpaceOnUse"
       x1="66.401207"
       y1="104.84493"
       x2="66.495117"
       y2="94.025963" />
  </defs>
  <sodipodi:namedview
     id="base"
     pagecolor="#ffffff"
     bordercolor="#666666"
     borderopacity="1.0"
     inkscape:pageopacity="0.0"
     inkscape:pageshadow="2"
     inkscape:zoom="2.8284271"
     inkscape:cx="20.220632"
     inkscape:cy="42.680514"
     inkscape:document-units="px"
     inkscape:current-layer="layer1"
     showgrid="false"
     inkscape:window-width="1600"
     inkscape:window-height="838"
     inkscape:window-x="-8"
     inkscape:window-y="-8"
     inkscape:window-maximized="1" />
  <metadata
     id="metadata7">
    <rdf:RDF>
      <cc:Work
         rdf:about="">
        <dc:format>image/svg+xml</dc:format>
        <dc:type
           rdf:resource="http://purl.org/dc/dcmitype/StillImage" />
        <dc:title></dc:title>
      </cc:Work>
    </rdf:RDF>
  </metadata>
  <g
     inkscape:label="Layer 1"
     inkscape:groupmode="layer"
     id="layer1"
     transform="translate(0,-924.36218)">
    <rect
       style="fill:#ff00ff;fill-opacity:1;stroke:none"
       id="rect4123"
       width="128"
       height="128"
       x="0"
       y="924.36218" />
    <path
       sodipodi:type="arc"
       style="fill:#000000;fill-opacity:1;stroke:none"
       id="path2985"
       sodipodi:cx="66.670067"
       sodipodi:cy="73.830566"
       sodipodi:rx="30.809652"
       sodipodi:ry="31.693537"
       d="m 97.479719,73.830566 a 30.809652,31.693537 0 1 1 -61.619304,0 30.809652,31.693537 0 1 1 61.619304,0 z"
       transform="matrix(1.0386355,0,0,1.0096696,-4.5678816,914.85653)" />
    <path
       transform="matrix(0.97372082,0,0,0.94656523,-0.24001444,919.51556)"
       d="m 97.479719,73.830566 a 30.809652,31.693537 0 1 1 -61.619304,0 30.809652,31.693537 0 1 1 61.619304,0 z"
       sodipodi:ry="31.693537"
       sodipodi:rx="30.809652"
       sodipodi:cy="73.830566"
       sodipodi:cx="66.670067"
       id="path2987"
       style="fill:#008080;fill-opacity:1;stroke:none"
       sodipodi:type="arc" />
    <path
       sodipodi:type="arc"
       style="fill:url(#linearGradient3005);fill-opacity:1;stroke:none"
       id="path2989"
       sodipodi:cx="66.670067"
       sodipodi:cy="73.830566"
       sodipodi:rx="30.809652"
       sodipodi:ry="31.693537"
       d="m 97.479719,73.830566 a 30.809652,31.693537 0 1 1 -61.619304,0 30.809652,31.693537 0 1 1 61.619304,0 z"
       transform="matrix(0.94126346,0,0,0.91501306,1.9340727,921.60269)" />
    <g
       id="g3862"
       transform="translate(-2.9168151,-6.3639608)">
      <path
         style="fill:#ffffff;fill-opacity:1;stroke:none"
         d="m 60.839696,984.68506 c 4.323362,2.86624 8.799469,3.31819 13.514108,0 l 0,21.75114 -13.514108,0 z"
         id="path3778"
         inkscape:connector-curvature="0"
         sodipodi:nodetypes="ccccc" />
      <path
         sodipodi:nodetypes="ccccc"
         inkscape:connector-curvature="0"
         id="path3780"
         d="m 46.363453,981.1222 c 4.969201,2.1538 11.243326,6.90279 15.626027,3.5779 l 0.004,21.7265 -0.02376,0 C 54.14936,997.34343 45.916524,989.86416 46.363476,981.1222 z"
         style="fill:#ffffff;fill-opacity:1;stroke:none" />
      <g
         transform="translate(2.25,-2.46875)"
         id="g3844">
        <path
           inkscape:connector-curvature="0"
           id="path3826"
           d="m 54.25,1005.3622 c -3.589851,0 -6.5,2.6863 -6.5,6 0,3.3137 2.910149,6 6.5,6 3.589851,0 6.5,-2.6863 6.5,-6 0,-3.3137 -2.910149,-6 -6.5,-6 z m 0,3.25 c 1.656854,0 3,1.3431 3,3 0,1.6568 -1.343146,3 -3,3 -1.656854,0 -3,-1.3432 -3,-3 0,-1.6569 1.343146,-3 3,-3 z"
           style="fill:#ffffff;fill-opacity:1;stroke:none" />
        <path
           sodipodi:type="arc"
           style="fill:#ffffff;fill-opacity:1;stroke:none"
           id="path3835"
           sodipodi:cx="54.453125"
           sodipodi:cy="87.59375"
           sodipodi:rx="0.703125"
           sodipodi:ry="0.6875"
           d="m 55.15625,87.59375 c 0,0.379696 -0.3148,0.6875 -0.703125,0.6875 -0.388325,0 -0.703125,-0.307804 -0.703125,-0.6875 0,-0.379696 0.3148,-0.6875 0.703125,-0.6875 0.388325,0 0.703125,0.307804 0.703125,0.6875 z"
           transform="translate(-0.25,923.98718)" />
      </g>
      <g
         transform="translate(-2.0625,-2.875)"
         id="g3848">
        <path
           style="fill:#ffffff;fill-opacity:1;stroke:none"
           d="m 80.875,1005.7685 c -3.589851,0 -6.5,2.6862 -6.5,6 0,3.3137 2.910149,6 6.5,6 3.589851,0 6.5,-2.6863 6.5,-6 0,-3.3138 -2.910149,-6 -6.5,-6 z m 0,3.25 c 1.656854,0 3,1.3431 3,3 0,1.6567 -1.343146,3 -3,3 -1.656854,0 -3,-1.3433 -3,-3 0,-1.6569 1.343146,-3 3,-3 z"
           id="path3782"
           inkscape:connector-curvature="0" />
        <path
           transform="translate(26.53125,923.95593)"
           d="m 55.15625,87.59375 c 0,0.379696 -0.3148,0.6875 -0.703125,0.6875 -0.388325,0 -0.703125,-0.307804 -0.703125,-0.6875 0,-0.379696 0.3148,-0.6875 0.703125,-0.6875 0.388325,0 0.703125,0.307804 0.703125,0.6875 z"
           sodipodi:ry="0.6875"
           sodipodi:rx="0.703125"
           sodipodi:cy="87.59375"
           sodipodi:cx="54.453125"
           id="path3839"
           style="fill:#ffffff;fill-opacity:1;stroke:none"
           sodipodi:type="arc" />
      </g>
      <path
         style="fill:#ffffff;fill-opacity:1;stroke:none"
         d="m 88.78284,981.1222 c -4.969196,2.1538 -11.243321,6.90279 -15.626022,3.5779 l -0.004,21.7265 0.02376,0 c 7.82036,-9.08317 16.053192,-16.56244 15.606242,-25.3044 z"
         id="path3852"
         inkscape:connector-curvature="0"
         sodipodi:nodetypes="ccccc" />
    </g>
    <path
       transform="matrix(0.94126346,0,0,0.91501306,1.9340727,921.60269)"
       d="m 97.479719,73.830566 a 30.809652,31.693537 0 1 1 -61.619304,0 30.809652,31.693537 0 1 1 61.619304,0 z"
       sodipodi:ry="31.693537"
       sodipodi:rx="30.809652"
       sodipodi:cy="73.830566"
       sodipodi:cx="66.670067"
       id="path3873"
       style="opacity:0.5;fill:url(#linearGradient3887);fill-opacity:1;stroke:none"
       sodipodi:type="arc" />
  </g>
</svg>
